<svg xmlns="http://www.w3.org/2000/svg" xmlns:svg="http://www.w3.org/2000/svg" id="Capa_1" width="100" height="100" x="0" y="0" enable-background="new 0 0 100 100" version="1.1" viewBox="0 0 100 100" xml:space="preserve"><metadata id="metadata34"/><path style="stroke-width:.10000000000000001;stroke-miterlimit:4;stroke-dasharray:none;fill:#fff" id="path3818" d="M 48.09375,51.1875 A 1.3890277,1.3890277 0 0 0 47,52.5625 l 0,6.9375 -34.71875,0 c -7.3363372,0 -13.3125,6.011667 -13.3125,13.375 l 0,13.125 a 1.3890277,1.3890277 0 0 0 1.375,1.375 l 3.28125,0 A 1.3890277,1.3890277 0 0 0 5,86 L 5,72.875 c 0,-4.050864 3.2669852,-7.34375 7.28125,-7.34375 l 34.71875,0 0,22.625 a 1.3890277,1.3890277 0 0 0 1.375,1.375 l 3.28125,0 a 1.3890277,1.3890277 0 0 0 1.375,-1.375 l 0,-22.625 34.6875,0 C 91.733015,65.53125 95,68.824136 95,72.875 L 95,86 a 1.3890277,1.3890277 0 0 0 1.375,1.375 l 3.28125,0 a 1.3890277,1.3890277 0 0 0 1.375,-1.375 l 0,-13.125 c 0,-7.364403 -5.976332,-13.375 -13.3125,-13.375 l -34.6875,0 0,-6.9375 a 1.3890277,1.3890277 0 0 0 -1.375,-1.375 l -3.28125,0 a 1.3890277,1.3890277 0 0 0 -0.28125,0 z" transform="matrix(0.95334325,0,0,1,2.3328376,6)"/><polygon id="polygon10" points="70.939 34.638 29.94 34.638 29.94 3.16 45.927 3.16 48.595 8.371 70.939 8.371" transform="matrix(1.5646491,0,0,1.6478917,-28.920118,-5.3272108)" style="fill:#fff"/></svg>