<svg xmlns="http://www.w3.org/2000/svg" xmlns:svg="http://www.w3.org/2000/svg" id="svg4477" width="100" height="100" version="1.1"><metadata id="metadata4482"/><g id="layer1" transform="translate(0,-952.36218)"><path style="fill:#fff;fill-opacity:1;stroke:#fff;stroke-width:6.6388936;stroke-linecap:butt;stroke-linejoin:miter;stroke-miterlimit:4;stroke-opacity:1;stroke-dasharray:none" id="path5069" d="m 31.134122,24.110577 a 9.9583406,9.9583406 0 1 1 -19.916681,0 9.9583406,9.9583406 0 1 1 19.916681,0 z" transform="matrix(0,-1.506275,1.5062751,0,-13.88736,1033.4191)"/><path style="fill:none;stroke:#fff;stroke-width:6.6388936;stroke-linecap:butt;stroke-linejoin:miter;stroke-miterlimit:4;stroke-opacity:1;stroke-dasharray:none" id="path5069-5" d="m 31.134122,24.110577 a 9.9583406,9.9583406 0 1 1 -19.916681,0 9.9583406,9.9583406 0 1 1 19.916681,0 z" transform="matrix(0,-1.5062751,1.5062751,0,40.62997,1063.411)"/><path style="fill:#fff;fill-opacity:1;stroke:#fff;stroke-width:6.6388917;stroke-linecap:butt;stroke-linejoin:miter;stroke-miterlimit:4;stroke-opacity:1;stroke-dasharray:none" id="path5069-3" d="m 31.134122,24.110577 a 9.9583406,9.9583406 0 1 1 -19.916681,0 9.9583406,9.9583406 0 1 1 19.916681,0 z" transform="matrix(0,-1.5062754,1.5062755,0,40.62996,1004.9178)"/><path style="fill:none;stroke:#fff;stroke-width:10;stroke-linecap:butt;stroke-linejoin:miter;stroke-miterlimit:4;stroke-opacity:1;stroke-dasharray:none" id="path5111" d="m 17.642194,1000.8689 47.280213,25.2692"/><path style="fill:none;stroke:#fff;stroke-width:10;stroke-linecap:butt;stroke-linejoin:miter;stroke-miterlimit:4;stroke-opacity:1;stroke-dasharray:none" id="path5111-7" d="M 66.24401,980.3585 15.11928,999.74217"/></g></svg>